<mxfile host="app.diagrams.net" modified="2023-03-19T15:23:37.350Z" agent="5.0 (Windows NT 10.0; Win64; x64) AppleWebKit/537.36 (KHTML, like Gecko) Chrome/111.0.0.0 Safari/537.36" etag="V8Avexh5t6iLHqsyeMH9" version="21.0.2" type="github">
  <diagram name="Page-1" id="pTtYJ5_N4WUrBFzaCRT1">
    <mxGraphModel dx="2607" dy="1375" grid="1" gridSize="10" guides="1" tooltips="1" connect="1" arrows="1" fold="1" page="1" pageScale="1" pageWidth="1700" pageHeight="1100" math="0" shadow="0">
      <root>
        <mxCell id="0" />
        <mxCell id="1" parent="0" />
        <mxCell id="FDc91h7cuOCh5w5TpFKJ-8" value="" style="group" vertex="1" connectable="0" parent="1">
          <mxGeometry x="370" y="340" width="250" height="290" as="geometry" />
        </mxCell>
        <mxCell id="FDc91h7cuOCh5w5TpFKJ-1" value="" style="rounded=1;whiteSpace=wrap;html=1;" vertex="1" parent="FDc91h7cuOCh5w5TpFKJ-8">
          <mxGeometry width="250" height="290" as="geometry" />
        </mxCell>
        <mxCell id="FDc91h7cuOCh5w5TpFKJ-2" value="analysis_data_select_ui" style="shape=process;whiteSpace=wrap;html=1;backgroundOutline=1;" vertex="1" parent="FDc91h7cuOCh5w5TpFKJ-8">
          <mxGeometry x="35" y="110" width="180" height="40" as="geometry" />
        </mxCell>
        <mxCell id="FDc91h7cuOCh5w5TpFKJ-3" value="analysis_additive_ui" style="shape=process;whiteSpace=wrap;html=1;backgroundOutline=1;" vertex="1" parent="FDc91h7cuOCh5w5TpFKJ-8">
          <mxGeometry x="35" y="220" width="180" height="40" as="geometry" />
        </mxCell>
        <mxCell id="FDc91h7cuOCh5w5TpFKJ-4" value="&lt;b&gt;&lt;font style=&quot;font-size: 15px;&quot;&gt;analysis_page&lt;/font&gt;&lt;/b&gt;" style="text;html=1;strokeColor=none;fillColor=none;align=center;verticalAlign=middle;whiteSpace=wrap;rounded=0;" vertex="1" parent="FDc91h7cuOCh5w5TpFKJ-8">
          <mxGeometry x="70" y="10" width="100" height="30" as="geometry" />
        </mxCell>
        <mxCell id="FDc91h7cuOCh5w5TpFKJ-6" value="mainPanel" style="text;html=1;strokeColor=none;fillColor=none;align=center;verticalAlign=middle;whiteSpace=wrap;rounded=0;" vertex="1" parent="FDc91h7cuOCh5w5TpFKJ-8">
          <mxGeometry x="90" y="190" width="60" height="30" as="geometry" />
        </mxCell>
        <mxCell id="FDc91h7cuOCh5w5TpFKJ-7" value="sidebarPanel" style="text;html=1;strokeColor=none;fillColor=none;align=center;verticalAlign=middle;whiteSpace=wrap;rounded=0;" vertex="1" parent="FDc91h7cuOCh5w5TpFKJ-8">
          <mxGeometry x="85" y="80" width="80" height="30" as="geometry" />
        </mxCell>
        <mxCell id="FDc91h7cuOCh5w5TpFKJ-9" value="" style="rounded=1;whiteSpace=wrap;html=1;" vertex="1" parent="1">
          <mxGeometry x="792.5" y="150" width="250" height="290" as="geometry" />
        </mxCell>
        <mxCell id="FDc91h7cuOCh5w5TpFKJ-10" value="analysis_data_select_ui" style="shape=process;whiteSpace=wrap;html=1;backgroundOutline=1;" vertex="1" parent="1">
          <mxGeometry x="815" y="230" width="205" height="40" as="geometry" />
        </mxCell>
        <mxCell id="FDc91h7cuOCh5w5TpFKJ-11" value="analysis_data_select_server" style="shape=process;whiteSpace=wrap;html=1;backgroundOutline=1;" vertex="1" parent="1">
          <mxGeometry x="815" y="320" width="205" height="40" as="geometry" />
        </mxCell>
        <mxCell id="FDc91h7cuOCh5w5TpFKJ-12" value="" style="endArrow=classic;html=1;rounded=0;entryX=0;entryY=0.5;entryDx=0;entryDy=0;" edge="1" parent="1" target="FDc91h7cuOCh5w5TpFKJ-10">
          <mxGeometry width="50" height="50" relative="1" as="geometry">
            <mxPoint x="590" y="470" as="sourcePoint" />
            <mxPoint x="640" y="420" as="targetPoint" />
          </mxGeometry>
        </mxCell>
        <mxCell id="FDc91h7cuOCh5w5TpFKJ-13" value="" style="rounded=1;whiteSpace=wrap;html=1;" vertex="1" parent="1">
          <mxGeometry x="1260" y="500" width="250" height="290" as="geometry" />
        </mxCell>
        <mxCell id="FDc91h7cuOCh5w5TpFKJ-14" value="&lt;b&gt;&lt;font style=&quot;font-size: 16px;&quot;&gt;server&lt;/font&gt;&lt;/b&gt;" style="text;html=1;strokeColor=none;fillColor=none;align=center;verticalAlign=middle;whiteSpace=wrap;rounded=0;" vertex="1" parent="1">
          <mxGeometry x="1355" y="510" width="60" height="30" as="geometry" />
        </mxCell>
        <mxCell id="FDc91h7cuOCh5w5TpFKJ-15" value="analysis_data_select_server" style="shape=process;whiteSpace=wrap;html=1;backgroundOutline=1;" vertex="1" parent="1">
          <mxGeometry x="1282.5" y="570" width="205" height="40" as="geometry" />
        </mxCell>
        <mxCell id="FDc91h7cuOCh5w5TpFKJ-16" value="" style="endArrow=classic;html=1;rounded=0;exitX=0;exitY=0.5;exitDx=0;exitDy=0;entryX=1;entryY=0.5;entryDx=0;entryDy=0;" edge="1" parent="1" source="FDc91h7cuOCh5w5TpFKJ-15" target="FDc91h7cuOCh5w5TpFKJ-11">
          <mxGeometry width="50" height="50" relative="1" as="geometry">
            <mxPoint x="1040" y="490" as="sourcePoint" />
            <mxPoint x="1090" y="440" as="targetPoint" />
          </mxGeometry>
        </mxCell>
        <mxCell id="FDc91h7cuOCh5w5TpFKJ-18" value="&lt;b&gt;&lt;font style=&quot;font-size: 15px;&quot;&gt;analysis_data_select&lt;/font&gt;&lt;/b&gt;" style="text;html=1;strokeColor=none;fillColor=none;align=center;verticalAlign=middle;whiteSpace=wrap;rounded=0;" vertex="1" parent="1">
          <mxGeometry x="830" y="170" width="160" height="30" as="geometry" />
        </mxCell>
        <mxCell id="FDc91h7cuOCh5w5TpFKJ-26" value="" style="rounded=1;whiteSpace=wrap;html=1;" vertex="1" parent="1">
          <mxGeometry x="50" y="720" width="250" height="290" as="geometry" />
        </mxCell>
        <mxCell id="FDc91h7cuOCh5w5TpFKJ-27" value="&lt;font size=&quot;1&quot; style=&quot;&quot;&gt;&lt;b style=&quot;font-size: 16px;&quot;&gt;ui&lt;/b&gt;&lt;/font&gt;" style="text;html=1;strokeColor=none;fillColor=none;align=center;verticalAlign=middle;whiteSpace=wrap;rounded=0;" vertex="1" parent="1">
          <mxGeometry x="145" y="730" width="60" height="30" as="geometry" />
        </mxCell>
        <mxCell id="FDc91h7cuOCh5w5TpFKJ-29" value="analysis_page" style="shape=process;whiteSpace=wrap;html=1;backgroundOutline=1;" vertex="1" parent="1">
          <mxGeometry x="85" y="780" width="180" height="40" as="geometry" />
        </mxCell>
        <mxCell id="FDc91h7cuOCh5w5TpFKJ-30" value="" style="endArrow=classic;html=1;rounded=0;" edge="1" parent="1">
          <mxGeometry width="50" height="50" relative="1" as="geometry">
            <mxPoint x="265" y="800" as="sourcePoint" />
            <mxPoint x="380" y="620" as="targetPoint" />
          </mxGeometry>
        </mxCell>
      </root>
    </mxGraphModel>
  </diagram>
</mxfile>
